<?xml version="1.0" encoding="utf-8"?>
<svg width="471" height="390" viewBox="0 0 471 390" xmlns="http://www.w3.org/2000/svg">
<rect id="frame" x="0" y="0" width="471" height="390" fill="#f7f7f7" stroke="none" stroke-width="0"/>

<!-- Association DISPOSE -->
<g>
	<line x1="191" y1="77" x2="67" y2="77" stroke="#4393c3" stroke-width="2"/>
	<text x="121" y="94" fill="#b2182b" font-family="Verdana" font-size="12">1,N</text>
	<line x1="67" y1="204" x2="67" y2="77" stroke="#4393c3" stroke-width="2"/>
	<text x="72" y="145" fill="#b2182b" font-family="Verdana" font-size="12">1,N</text>
	<g>
		<path d="M88 52 a14 14 90 0 1 14 14 V77 h-70 V66 a14 14 90 0 1 14 -14" fill="#92c5de" stroke="#92c5de" stroke-width="0"/>
		<path d="M102 77 v11 a14 14 90 0 1 -14 14 H46 a14 14 90 0 1 -14 -14 V77 H70" fill="#d1e5f0" stroke="#d1e5f0" stroke-width="0"/>
		<rect x="32" y="52" width="70" height="50" fill="none" rx="14" stroke="#4393c3" stroke-width="2"/>
		<line x1="32" y1="77" x2="102" y2="77" stroke="#4393c3" stroke-width="1"/>
		<text x="39" y="69.75" fill="#000" font-family="Verdana" font-size="12">DISPOSE</text>
	</g>
</g>

<!-- Association PROPOSE -->
<g>
	<line x1="191" y1="77" x2="315" y2="77" stroke="#4393c3" stroke-width="2"/>
	<text x="239" y="94" fill="#b2182b" font-family="Verdana" font-size="12">0,N</text>
	<line x1="423" y1="77" x2="315" y2="77" stroke="#4393c3" stroke-width="2"/>
	<text x="357" y="94" fill="#b2182b" font-family="Verdana" font-size="12">1,N</text>
	<g>
		<path d="M338 52 a14 14 90 0 1 14 14 V77 h-74 V66 a14 14 90 0 1 14 -14" fill="#92c5de" stroke="#92c5de" stroke-width="0"/>
		<path d="M352 77 v11 a14 14 90 0 1 -14 14 H292 a14 14 90 0 1 -14 -14 V77 H74" fill="#d1e5f0" stroke="#d1e5f0" stroke-width="0"/>
		<rect x="278" y="52" width="74" height="50" fill="none" rx="14" stroke="#4393c3" stroke-width="2"/>
		<line x1="278" y1="77" x2="352" y2="77" stroke="#4393c3" stroke-width="1"/>
		<text x="286" y="69.75" fill="#000" font-family="Verdana" font-size="12">PROPOSE</text>
	</g>
</g>

<!-- Association SUGGEST -->
<g>
	<line x1="191" y1="77" x2="191" y2="204" stroke="#4393c3" stroke-width="2"/>
	<text x="196" y="162" fill="#b2182b" font-family="Verdana" font-size="12">0,N</text>
	<line x1="315" y1="204" x2="191" y2="204" stroke="#4393c3" stroke-width="2"/>
	<text x="249" y="221" fill="#b2182b" font-family="Verdana" font-size="12">1,N</text>
	<g>
		<path d="M214 179 a14 14 90 0 1 14 14 V204 h-74 V193 a14 14 90 0 1 14 -14" fill="#92c5de" stroke="#92c5de" stroke-width="0"/>
		<path d="M228 204 v11 a14 14 90 0 1 -14 14 H168 a14 14 90 0 1 -14 -14 V204 H74" fill="#d1e5f0" stroke="#d1e5f0" stroke-width="0"/>
		<rect x="154" y="179" width="74" height="50" fill="none" rx="14" stroke="#4393c3" stroke-width="2"/>
		<line x1="154" y1="204" x2="228" y2="204" stroke="#4393c3" stroke-width="1"/>
		<text x="161" y="196.75" fill="#000" font-family="Verdana" font-size="12">SUGGEST</text>
	</g>
</g>

<!-- Association RESIDE -->
<g>
	<line x1="191" y1="322" x2="67" y2="322" stroke="#4393c3" stroke-width="2"/>
	<text x="130" y="339" fill="#b2182b" font-family="Verdana" font-size="12">1,N</text>
	<line x1="67" y1="204" x2="67" y2="322" stroke="#4393c3" stroke-width="2"/>
	<text x="72" y="272" fill="#b2182b" font-family="Verdana" font-size="12">1,N</text>
	<g>
		<path d="M111 280 a14 14 90 0 1 14 14 V305 h-116 V294 a14 14 90 0 1 14 -14" fill="#92c5de" stroke="#92c5de" stroke-width="0"/>
		<path d="M125 305 v45 a14 14 90 0 1 -14 14 H23 a14 14 90 0 1 -14 -14 V305 H116" fill="#d1e5f0" stroke="#d1e5f0" stroke-width="0"/>
		<rect x="9" y="280" width="116" height="84" fill="none" rx="14" stroke="#4393c3" stroke-width="2"/>
		<line x1="9" y1="305" x2="125" y2="305" stroke="#4393c3" stroke-width="1"/>
		<text x="44" y="297.75" fill="#000" font-family="Verdana" font-size="12">RESIDE</text>
		<text x="16" y="322.8" fill="#000" font-family="Verdana" font-size="12">arrivalDate</text>
		<text x="16" y="339.8" fill="#000" font-family="Verdana" font-size="12">departureDate</text>
		<text x="16" y="356.8" fill="#000" font-family="Verdana" font-size="12">numberOfPeople</text>
	</g>
</g>

<!-- Association BOOK -->
<g>
	<line x1="191" y1="322" x2="315" y2="322" stroke="#4393c3" stroke-width="2"/>
	<text x="230" y="339" fill="#b2182b" font-family="Verdana" font-size="12">1,N</text>
	<line x1="315" y1="204" x2="315" y2="322" stroke="#4393c3" stroke-width="2"/>
	<text x="320" y="272" fill="#b2182b" font-family="Verdana" font-size="12">1,N</text>
	<g>
		<path d="M359 280 a14 14 90 0 1 14 14 V305 h-116 V294 a14 14 90 0 1 14 -14" fill="#92c5de" stroke="#92c5de" stroke-width="0"/>
		<path d="M373 305 v45 a14 14 90 0 1 -14 14 H271 a14 14 90 0 1 -14 -14 V305 H116" fill="#d1e5f0" stroke="#d1e5f0" stroke-width="0"/>
		<rect x="257" y="280" width="116" height="84" fill="none" rx="14" stroke="#4393c3" stroke-width="2"/>
		<line x1="257" y1="305" x2="373" y2="305" stroke="#4393c3" stroke-width="1"/>
		<text x="297" y="297.75" fill="#000" font-family="Verdana" font-size="12">BOOK</text>
		<text x="264" y="322.8" fill="#000" font-family="Verdana" font-size="12">startDate</text>
		<text x="264" y="339.8" fill="#000" font-family="Verdana" font-size="12">duration</text>
		<text x="264" y="356.8" fill="#000" font-family="Verdana" font-size="12">numberOfPeople</text>
	</g>
</g>

<!-- Entity Hotel -->
<g>
	<g>
		<rect x="148" y="9" width="86" height="25" fill="#f4a582" stroke="#f4a582" stroke-width="0" opacity="1"/>
		<rect x="148" y="34" width="86" height="111" fill="#fddbc7" stroke="#fddbc7" stroke-width="0" opacity="1"/>
		<rect x="148" y="9" width="86" height="136" fill="none" stroke="#d6604d" stroke-width="2" opacity="1"/>
		<line x1="148" y1="34" x2="234" y2="34" stroke="#d6604d" stroke-width="1"/>
	</g>
	<text x="175" y="26.75" fill="#000" font-family="Verdana" font-size="12">Hotel</text>
	<text x="153" y="51.8" fill="#000" font-family="Verdana" font-size="12">name</text>
	<line x1="153" y1="54" x2="188" y2="54" stroke="#000" stroke-width="1"/>
	<text x="153" y="68.8" fill="#000" font-family="Verdana" font-size="12">picture</text>
	<text x="153" y="85.8" fill="#000" font-family="Verdana" font-size="12">home_order</text>
	<text x="153" y="102.8" fill="#000" font-family="Verdana" font-size="12">description</text>
	<text x="153" y="119.8" fill="#000" font-family="Verdana" font-size="12">ranking</text>
	<text x="153" y="136.8" fill="#000" font-family="Verdana" font-size="12">address</text>
</g>

<!-- Entity Service -->
<g>
	<g>
		<rect x="384" y="26" width="78" height="25" fill="#f4a582" stroke="#f4a582" stroke-width="0" opacity="1"/>
		<rect x="384" y="51" width="78" height="77" fill="#fddbc7" stroke="#fddbc7" stroke-width="0" opacity="1"/>
		<rect x="384" y="26" width="78" height="102" fill="none" stroke="#d6604d" stroke-width="2" opacity="1"/>
		<line x1="384" y1="51" x2="462" y2="51" stroke="#d6604d" stroke-width="1"/>
	</g>
	<text x="401" y="43.75" fill="#000" font-family="Verdana" font-size="12">Service</text>
	<text x="389" y="68.8" fill="#000" font-family="Verdana" font-size="12">name</text>
	<line x1="389" y1="71" x2="424" y2="71" stroke="#000" stroke-width="1"/>
	<text x="389" y="85.8" fill="#000" font-family="Verdana" font-size="12">picture</text>
	<text x="389" y="102.8" fill="#000" font-family="Verdana" font-size="12">description</text>
	<text x="389" y="119.8" fill="#000" font-family="Verdana" font-size="12">price</text>
</g>

<!-- Entity Room -->
<g>
	<g>
		<rect x="28" y="153" width="78" height="25" fill="#f4a582" stroke="#f4a582" stroke-width="0" opacity="1"/>
		<rect x="28" y="178" width="78" height="77" fill="#fddbc7" stroke="#fddbc7" stroke-width="0" opacity="1"/>
		<rect x="28" y="153" width="78" height="102" fill="none" stroke="#d6604d" stroke-width="2" opacity="1"/>
		<line x1="28" y1="178" x2="106" y2="178" stroke="#d6604d" stroke-width="1"/>
	</g>
	<text x="49" y="170.75" fill="#000" font-family="Verdana" font-size="12">Room</text>
	<text x="33" y="195.8" fill="#000" font-family="Verdana" font-size="12">picture</text>
	<line x1="33" y1="198" x2="76" y2="198" stroke="#000" stroke-width="1"/>
	<text x="33" y="212.8" fill="#000" font-family="Verdana" font-size="12">description</text>
	<text x="33" y="229.8" fill="#000" font-family="Verdana" font-size="12">price</text>
	<text x="33" y="246.8" fill="#000" font-family="Verdana" font-size="12">surface</text>
</g>

<!-- Entity Activity -->
<g>
	<g>
		<rect x="276" y="153" width="78" height="25" fill="#f4a582" stroke="#f4a582" stroke-width="0" opacity="1"/>
		<rect x="276" y="178" width="78" height="77" fill="#fddbc7" stroke="#fddbc7" stroke-width="0" opacity="1"/>
		<rect x="276" y="153" width="78" height="102" fill="none" stroke="#d6604d" stroke-width="2" opacity="1"/>
		<line x1="276" y1="178" x2="354" y2="178" stroke="#d6604d" stroke-width="1"/>
	</g>
	<text x="292" y="170.75" fill="#000" font-family="Verdana" font-size="12">Activity</text>
	<text x="281" y="195.8" fill="#000" font-family="Verdana" font-size="12">name</text>
	<line x1="281" y1="198" x2="316" y2="198" stroke="#000" stroke-width="1"/>
	<text x="281" y="212.8" fill="#000" font-family="Verdana" font-size="12">picture</text>
	<text x="281" y="229.8" fill="#000" font-family="Verdana" font-size="12">description</text>
	<text x="281" y="246.8" fill="#000" font-family="Verdana" font-size="12">price</text>
</g>

<!-- Entity User -->
<g>
	<g>
		<rect x="157" y="263" width="68" height="25" fill="#f4a582" stroke="#f4a582" stroke-width="0" opacity="1"/>
		<rect x="157" y="288" width="68" height="93" fill="#fddbc7" stroke="#fddbc7" stroke-width="0" opacity="1"/>
		<rect x="157" y="263" width="68" height="118" fill="none" stroke="#d6604d" stroke-width="2" opacity="1"/>
		<line x1="157" y1="288" x2="225" y2="288" stroke="#d6604d" stroke-width="1"/>
	</g>
	<text x="177" y="280.75" fill="#000" font-family="Verdana" font-size="12">User</text>
	<text x="162" y="305.8" fill="#000" font-family="Verdana" font-size="12">firstname</text>
	<line x1="162" y1="308" x2="220" y2="308" stroke="#000" stroke-width="1"/>
	<text x="162" y="322.8" fill="#000" font-family="Verdana" font-size="12">lastname</text>
	<text x="162" y="339.8" fill="#000" font-family="Verdana" font-size="12">age</text>
	<text x="162" y="356.8" fill="#000" font-family="Verdana" font-size="12">email</text>
	<text x="162" y="373.8" fill="#000" font-family="Verdana" font-size="12">password</text>
</g>
</svg>